<svg xmlns="http://www.w3.org/2000/svg" width="800" height="400" viewBox="0 0 800 400">
  <defs>
    <linearGradient id="grad1" x1="0%" y1="0%" x2="100%" y2="100%">
      <stop offset="0%" style="stop-color:#673ab7;stop-opacity:1" />
      <stop offset="100%" style="stop-color:#311b92;stop-opacity:1" />
    </linearGradient>
    <pattern id="pattern1" width="60" height="60" patternUnits="userSpaceOnUse">
      <circle cx="30" cy="30" r="2" fill="rgba(255,255,255,0.1)" />
    </pattern>
  </defs>
  <rect width="100%" height="100%" fill="url(#grad1)" />
  <rect width="100%" height="100%" fill="url(#pattern1)" />
  
  <!-- Psychology symbols -->
  <g fill="rgba(255,255,255,0.2)">
    <!-- Brain outline -->
    <path d="M400,100 C450,80 470,120 460,150 C490,160 500,200 480,220 C500,240 490,270 470,280 C480,310 450,330 420,320 C400,340 370,340 350,320 C320,330 290,310 300,280 C280,270 270,240 290,220 C270,200 280,160 310,150 C300,120 320,80 370,90 C380,80 390,80 400,100 Z" stroke="rgba(255,255,255,0.4)" stroke-width="3" fill="rgba(255,255,255,0.1)" />
    
    <!-- Brain details -->
    <path d="M370,90 C380,110 390,110 400,100" stroke="rgba(255,255,255,0.3)" stroke-width="2" fill="none" />
    <path d="M460,150 C430,140 410,150 400,170" stroke="rgba(255,255,255,0.3)" stroke-width="2" fill="none" />
    <path d="M310,150 C340,140 360,150 370,170" stroke="rgba(255,255,255,0.3)" stroke-width="2" fill="none" />
    <path d="M480,220 C450,210 420,220 400,230" stroke="rgba(255,255,255,0.3)" stroke-width="2" fill="none" />
    <path d="M290,220 C320,210 350,220 370,230" stroke="rgba(255,255,255,0.3)" stroke-width="2" fill="none" />
    <path d="M470,280 C440,270 410,280 390,290" stroke="rgba(255,255,255,0.3)" stroke-width="2" fill="none" />
    <path d="M300,280 C330,270 360,280 380,290" stroke="rgba(255,255,255,0.3)" stroke-width="2" fill="none" />
    
    <!-- Freud silhouette -->
    <path d="M150,150 C140,140 140,130 150,120 C160,110 180,110 190,120 C200,110 220,110 230,120 C240,130 240,140 230,150 C240,160 240,180 230,190 C220,200 200,200 190,190 C180,200 160,200 150,190 C140,180 140,160 150,150 Z" stroke="rgba(255,255,255,0.4)" stroke-width="2" fill="rgba(255,255,255,0.1)" />
    <ellipse cx="190" cy="140" rx="30" ry="10" stroke="rgba(255,255,255,0.3)" stroke-width="1" fill="none" />
    <path d="M175,170 C185,180 195,180 205,170" stroke="rgba(255,255,255,0.3)" stroke-width="1" fill="none" />
    
    <!-- Inkblot test -->
    <path d="M600,150 C620,130 640,140 650,160 C660,140 680,130 700,150 C710,170 700,190 680,200 C700,210 710,230 700,250 C680,270 660,260 650,240 C640,260 620,270 600,250 C590,230 600,210 620,200 C600,190 590,170 600,150 Z" stroke="rgba(255,255,255,0.4)" stroke-width="2" fill="rgba(255,255,255,0.1)" />
  </g>
  
  <!-- Text -->
  <text x="400" y="350" font-family="Arial, sans-serif" font-size="40" font-weight="bold" text-anchor="middle" fill="rgba(255,255,255,0.7)">PSYCHOLOGY</text>
</svg>